<svg xmlns="http://www.w3.org/2000/svg" width="640" height="1000" viewBox="0 0 640 1000" role="img" aria-label="Fluxograma sincrono">
<defs><marker id="seta" markerWidth="8" markerHeight="8" refX="7" refY="4" orient="auto"><path d="M0 0 L8 4 L0 8" fill="none" stroke="#516078"/></marker></defs><rect width="640" height="100%" fill="white"/>
<polyline points="300,68 300,105" fill="none" stroke="#516078" stroke-width="2" marker-end="url(#seta)"/>
<polyline points="300,165 300,200" fill="none" stroke="#516078" stroke-width="2" marker-end="url(#seta)"/>
<polyline points="300,260 300,305" fill="none" stroke="#516078" stroke-width="2" marker-end="url(#seta)"/>
<polyline points="405,355 450,355" fill="none" stroke="#516078" stroke-width="2" marker-end="url(#seta)"/>
<text x="414" y="344" font-family="Arial" font-size="15" fill="#32445a">Não</text>
<polyline points="300,405 300,450" fill="none" stroke="#516078" stroke-width="2" marker-end="url(#seta)"/>
<text x="311" y="432" font-family="Arial" font-size="15" fill="#32445a">Sim</text>
<polyline points="300,516 300,560" fill="none" stroke="#516078" stroke-width="2" marker-end="url(#seta)"/>
<polyline points="300,626 300,670" fill="none" stroke="#516078" stroke-width="2" marker-end="url(#seta)"/>
<polyline points="300,736 300,780" fill="none" stroke="#516078" stroke-width="2" marker-end="url(#seta)"/>
<polyline points="300,846 300,895" fill="none" stroke="#516078" stroke-width="2" marker-end="url(#seta)"/>
<polyline points="538,385 538,919 435,919" fill="none" stroke="#516078" stroke-width="2" marker-end="url(#seta)"/>
<rect x="165" y="20" width="270" height="48" rx="24.0" fill="#194374" stroke="#7186a1"/>
<text x="300.0" y="49.0" text-anchor="middle" font-family="Arial" font-size="16" fill="white">Início</text>
<rect x="165" y="105" width="270" height="60" rx="6" fill="#eef3fa" stroke="#7186a1"/>
<text x="300.0" y="140.0" text-anchor="middle" font-family="Arial" font-size="16" fill="#1f3046">Aluno preenche e envia</text>
<rect x="165" y="200" width="270" height="60" rx="6" fill="#eef3fa" stroke="#7186a1"/>
<text x="300.0" y="235.0" text-anchor="middle" font-family="Arial" font-size="16" fill="#1f3046">POST /api/sincrono</text>
<polygon points="300.0,305 405,355.0 300.0,405 195,355.0" fill="#fff7e2" stroke="#9b7826"/>
<text x="300.0" y="360.0" text-anchor="middle" font-family="Arial" font-size="16" fill="#1f3046">Dados válidos?</text>
<rect x="450" y="325" width="175" height="60" rx="6" fill="#eef3fa" stroke="#7186a1"/>
<text x="537.5" y="349.5" text-anchor="middle" font-family="Arial" font-size="16" fill="#1f3046">Responder erro</text>
<text x="537.5" y="370.5" text-anchor="middle" font-family="Arial" font-size="16" fill="#1f3046">400</text>
<rect x="165" y="450" width="270" height="66" rx="6" fill="#eef3fa" stroke="#7186a1"/>
<text x="300.0" y="477.5" text-anchor="middle" font-family="Arial" font-size="16" fill="#1f3046">API chama o serviço</text>
<text x="300.0" y="498.5" text-anchor="middle" font-family="Arial" font-size="16" fill="#1f3046">acadêmico e aguarda</text>
<rect x="165" y="560" width="270" height="66" rx="6" fill="#eef3fa" stroke="#7186a1"/>
<text x="300.0" y="587.5" text-anchor="middle" font-family="Arial" font-size="16" fill="#1f3046">Serviço confere duplicidade</text>
<text x="300.0" y="608.5" text-anchor="middle" font-family="Arial" font-size="16" fill="#1f3046">e registra se permitido</text>
<rect x="165" y="670" width="270" height="66" rx="6" fill="#eef3fa" stroke="#7186a1"/>
<text x="300.0" y="697.5" text-anchor="middle" font-family="Arial" font-size="16" fill="#1f3046">Serviço retorna matrícula</text>
<text x="300.0" y="718.5" text-anchor="middle" font-family="Arial" font-size="16" fill="#1f3046">ou erro para a API</text>
<rect x="165" y="780" width="270" height="66" rx="6" fill="#eef3fa" stroke="#7186a1"/>
<text x="300.0" y="807.5" text-anchor="middle" font-family="Arial" font-size="16" fill="#1f3046">API responde ao aluno</text>
<text x="300.0" y="828.5" text-anchor="middle" font-family="Arial" font-size="16" fill="#1f3046">201 ou erro</text>
<rect x="165" y="895" width="270" height="48" rx="24.0" fill="#194374" stroke="#7186a1"/>
<text x="300.0" y="924.0" text-anchor="middle" font-family="Arial" font-size="16" fill="white">Exibir resultado / Fim</text>
</svg>